<?xml version="1.0" encoding="UTF-8"?>
<svg id="logo" xmlns="http://www.w3.org/2000/svg" viewBox="0 0 335.21 335.2">
  <defs>
    <style>
      .cls-1 {
        fill: #01518e;
        fill-rule: evenodd;
      }
    </style>
  </defs>
  <path class="cls-1" d="m184.34,50.3l9.84,1.74.77-4.37-4.15-.73.85-4.8,3.53.62.73-4.15-3.53-.62.73-4.15,3.78.67.77-4.37-9.47-1.67-3.85,21.84Z"/>
  <path class="cls-1" d="m195.84,52.56l5.74-21.43,5.58,1.5-5.74,21.43-5.58-1.5Z"/>
  <path class="cls-1" d="m167.6,20.69l7.54.17,7.47.59,7.3.95,7.23,1.28,7.13,1.63,6.91,2.02,6.86,2.33,6.66,2.61,6.52,2.97,6.34,3.25,6.14,3.54,5.94,3.81,5.74,4.13,5.58,4.31,5.32,4.67,5.13,4.84,4.84,5.12,4.67,5.33,4.36,5.57,4.09,5.74,3.81,5.95,3.59,6.14,3.22,6.34,2.95,6.51,2.62,6.67,2.35,6.86,1.99,6.94,1.64,7.09,1.28,7.23.94,7.36.58,7.42.2,7.54-.2,7.58-.58,7.42-.94,7.34-1.28,7.22-1.64,7.1-1.99,6.95-2.35,6.81-2.62,6.66-2.95,6.51-3.22,6.34-3.59,6.15-3.81,5.95-4.09,5.78-4.36,5.53-4.67,5.36-4.84,5.14-5.13,4.83-5.32,4.63-5.58,4.4-5.74,4.09-5.94,3.81-6.14,3.54-6.34,3.27-6.52,2.91-6.66,2.66-6.86,2.33-6.91,1.96-7.13,1.68-7.23,1.27-7.3.91-7.47.58-7.54.18-7.54-.18-7.46-.58-7.3-.91-7.23-1.27-7.12-1.68-6.91-1.96-6.86-2.33-6.66-2.66-6.52-2.91-6.34-3.27-6.14-3.54-5.95-3.81-5.73-4.09-5.57-4.4-5.32-4.63-5.13-4.83-4.85-5.14-4.66-5.36-4.36-5.53-4.09-5.78-3.81-5.95-3.58-6.15-3.23-6.34-2.96-6.51-2.62-6.66-2.33-6.81-2-6.95-1.64-7.1-1.28-7.22-.95-7.34-.58-7.42-.19-7.58.19-7.54.58-7.42.95-7.36,1.28-7.23,1.64-7.09,2-6.94,2.33-6.86,2.62-6.67,2.96-6.51,3.23-6.34,3.58-6.14,3.81-5.95,4.09-5.74,4.36-5.57,4.66-5.33,4.85-5.12,5.13-4.84,5.32-4.67,5.57-4.31,5.73-4.13,5.95-3.81,6.14-3.54,6.34-3.25,6.52-2.97,6.66-2.61,6.86-2.33,6.91-2.02,7.12-1.63,7.23-1.28,7.3-.95,7.46-.59,7.54-.17Zm10.52-13.82l-9.87,10.39-.65.69-.65-.69-9.87-10.39-8.44,11.63-.59.74-.69-.58-11.19-9.03-6.85,12.59-.45.84-.8-.46-12.23-7.51-5.52,14.27-.83-.37-13.14-5.82-3.36,13.95-.22.9-14.63-4.31-1.57,14.26-.07.94-.92-.18-14.18-2.22.35,14.4v.9s-.92-.02-.92-.02l-14.36-.34,2.22,14.16.13.95-.9.04-14.26,1.58,4.04,13.72.27.9-.9.23-13.96,3.35,5.82,13.14.38.84-.88.37-13.39,5.15,7.5,12.22.47.85-.84.41-12.58,6.85,9.02,11.19.6.71-.74.57-11.63,8.45,11.09,10.52-.7.65-10.39,9.9,11.63,8.4.74.59-.6.74-9.02,11.14,12.58,6.87.84.44-.47.8-7.5,12.23,13.39,5.22.88.29-.38.88-5.82,13.1,13.96,3.35.9.25-.27.88-4.04,13.77,14.26,1.54.9.05-.13.97-2.22,14.16,14.36-.37h.94v.97s-.36,14.3-.36,14.3l14.18-2.22.92-.14.07.9,1.57,14.32,13.73-4.1.9-.25,3.58,14.85,13.14-5.82.83-.4.34.93,5.18,13.34,12.23-7.45.8-.46.45.79,6.85,12.63,11.19-9.07.69-.58.59.77,8.44,11.61,9.87-10.41.65-.69.65.69,9.87,10.41,8.44-11.61.59-.77.69.58,11.18,9.07,6.85-12.63.47-.79.79.46,12.23,7.45,5.18-13.34.34-.93.83.4,13.14,5.82,3.35-13.92.23-.93.9.25,13.72,4.1,1.57-14.32.07-.9.91.14,14.17,2.22-.35-14.3v-.97s.93,0,.93,0l14.34.37-2.21-14.16-.15-.97.91-.05,14.26-1.54-4.04-13.77-.27-.88.9-.25,13.96-3.35-5.82-13.1-.37-.88.87-.29,13.39-5.22-7.5-12.23-.46-.8.83-.44,12.59-6.87-9.03-11.14-.59-.74.74-.59,11.62-8.4-10.39-9.9-.7-.65.7-.66,10.39-9.86-11.62-8.45-.74-.57.59-.71,9.03-11.19-12.59-6.85-.83-.41.46-.85,7.5-12.22-13.39-5.15-.87-.37,6.19-13.98-13.96-3.35-.9-.23.27-.9,4.04-13.72-14.26-1.58-.91-.04,2.36-15.11-14.34.34-.95.02v-.9s.36-14.4.36-14.4l-14.17,2.22-.91.18-.07-.94-1.57-14.26-14.62,4.31-.23-.9-3.35-13.95-13.14,5.82-.83.37-.34-.87-5.18-13.4-12.23,7.51-.79.46-.47-.84-6.85-12.59-11.18,9.03-.69.58-.59-.74-8.44-11.63Z"/>
  <path class="cls-1" d="m167.6,15.39l9.97-10.51.77-.78.6.84,8.53,11.73,11.26-9.13.84-.63.5.92,6.94,12.73,12.35-7.58.89-.55.39.99,5.22,13.56,13.23-5.91.97-.45.25,1.03,3.42,14.1,13.85-4.08,1.05-.33.11,1.11,1.53,14.38,14.32-2.27,1.06-.14-.04,1.07-.35,14.47,14.46-.35,1.08-.03-.15,1.06-2.27,14.31,14.38,1.52,1.1.11-.33,1.05-4.07,13.89,14.09,3.37,1.03.25-.44.97-5.91,13.25,13.55,5.23.98.38-.54.9-7.58,12.34,12.73,6.94.92.5-.63.84-9.13,11.23,11.74,8.55.84.65-.78.73-10.52,9.97,10.52,9.97.78.76-.84.61-11.74,8.54,9.13,11.28.63.8-.92.51-12.73,6.93,7.58,12.36.54.92-.98.35-13.55,5.22,6.35,14.23-1.03.23-14.09,3.41,4.07,13.87.33,1.07-1.1.07-14.38,1.53,2.27,14.35.15,1.02h-1.08l-14.46-.37.35,14.45.04,1.1-1.06-.17-14.32-2.22-1.53,14.38-.11,1.07-1.05-.29-13.85-4.14-3.42,14.11-.25,1.03-.97-.42-13.23-5.89-5.22,13.51-.39,1.01-.89-.57-12.35-7.53-6.94,12.69-.5.99-.84-.69-11.26-9.1-8.53,11.69-.6.86-.77-.76-9.97-10.52-9.97,10.52-.77.76-.6-.86-8.53-11.69-11.25,9.1-.84.69-.5-.99-6.93-12.69-12.35,7.53-.88.57-.4-1.01-5.22-13.51-13.24,5.89-.97.42-.24-1.03-3.42-14.11-13.85,4.14-1.04.29-.11-1.07-1.53-14.38-14.31,2.22-1.07.17.04-1.1.36-14.45-14.47.37h-1.08l.15-1.02,2.27-14.35-14.38-1.53-1.1-.07.33-1.07,4.09-13.87-14.1-3.41-1.03-.23.44-.99,5.9-13.25-13.55-5.22-.99-.35.54-.92,7.59-12.36-12.74-6.93-.92-.51.64-.8,9.13-11.28-11.74-8.54-.83-.61.77-.76,10.51-9.97-10.51-9.97-.77-.73.83-.65,11.74-8.55-9.13-11.23-.64-.84,13.66-7.44-7.59-12.34-.54-.9.99-.38,13.55-5.23-5.9-13.25-.44-.97,1.03-.25,14.1-3.37-4.09-13.89-.33-1.05,1.1-.11,14.38-1.52-2.27-14.31-.15-1.06,1.08.03,14.47.35-.36-14.47-.04-1.07,1.07.14,14.31,2.27,1.53-14.38.11-1.11,1.04.33,13.85,4.08,3.42-14.1.24-1.03.97.45,13.24,5.91,5.22-13.56.4-.99.88.55,12.35,7.58,7.44-13.66.84.63,11.25,9.13,8.53-11.73.6-.84.77.78,9.97,10.51Zm0-15.39l8.58.21,8.49.67,8.42,1.05,8.22,1.45,8.09,1.9,7.94,2.26,7.79,2.65,7.61,2.98,7.43,3.41,7.21,3.69,7.03,4.05,6.8,4.38,6.56,4.69,6.35,4.93,6.08,5.29,5.83,5.56,5.57,5.83,5.28,6.09,4.95,6.34,4.69,6.55,4.37,6.81,4.05,7.03,3.72,7.24,3.38,7.41,2.99,7.59,2.65,7.8,2.27,7.94,1.88,8.09,1.47,8.21,1.05,8.41.67,8.48.21,8.59-.21,8.63-.67,8.49-1.05,8.38-1.47,8.22-1.88,8.09-2.27,7.98-2.65,7.79-2.99,7.55-3.38,7.44-3.72,7.21-4.05,7.02-4.37,6.81-4.69,6.6-4.95,6.32-5.28,6.06-5.57,5.82-5.83,5.57-6.08,5.28-6.35,4.99-6.56,4.68-6.8,4.38-7.03,3.99-7.21,3.72-7.43,3.4-7.61,3.01-7.79,2.62-7.94,2.26-8.09,1.88-8.22,1.5-8.42,1.06-8.49.65-8.58.18-8.58-.18-8.48-.65-8.42-1.06-8.21-1.5-8.1-1.88-7.93-2.26-7.79-2.62-7.61-3.01-7.43-3.4-7.21-3.72-7.02-3.99-6.81-4.38-6.55-4.68-6.35-4.99-6.08-5.28-5.83-5.57-5.57-5.82-5.28-6.06-4.95-6.32-4.7-6.6-4.37-6.81-4.05-7.02-3.71-7.21-3.4-7.44-2.97-7.55-2.65-7.79-2.27-7.98-1.88-8.09-1.47-8.22-1.05-8.38-.67-8.49-.21-8.63.21-8.59.67-8.48,1.05-8.41,1.47-8.21,1.88-8.09,2.27-7.94,2.65-7.8,2.97-7.59,3.4-7.41,3.71-7.24,4.05-7.03,4.37-6.81,4.7-6.55,4.95-6.34,5.28-6.09,5.57-5.83,5.83-5.56,6.08-5.29,6.35-4.93,6.55-4.69,6.81-4.38,7.02-4.05,7.21-3.69,7.43-3.41,7.61-2.98,7.79-2.65,7.93-2.26,8.1-1.9,8.21-1.45,8.42-1.05,8.48-.67,8.58-.21Z"/>
  <path class="cls-1" d="m151.88,280.29l.03.18.04.15v.39l-.07.15-.05.19-.03.12-.08.15-.11.15-.1.15-.11.13-.15.06-.14.06-.15.09-.19.04h-.16l-.27-.04-.31-.05h-.29l-.25.05-.54.06-.5.13h-.26l-.27.02h-.21l-.25-.02-.11-.04-.13-.05-.1-.05-.1-.04-.1-.1-.12-.11-.13-.13-.1-.15.07-.09.12-.15.05-.11.05-.15.08-.29.07-.34.1-.63.08-.61.02-.3.05-.33.1-.25.1-.25.1-.16.08-.1.06-.09.1-.1.1-.1.13-.05.14-.09.15-.06.25-.26.17-.18.19-.19.22-.11.16-.11.16-.03.1-.02h.15l.13.05.1.05.11.05.1.11.08.14.08.13.1.16.09.2.24.77.29.79.19.36.17.33.13.17.06.12.15.12.12.1Zm53.86-3.79v.27s.15.17.15.17l.05.14.15.1.15.13.14.06.19.09.22.02.36.04.42.06h.17l.18.09.19.05.15.06.17.18.19.15.19.19.21.12.19.12.17.16.23.15.2.1.49.17.43.15.46.12.53.06.46.08h1.03l.5-.08.5-.03.43-.11.46-.15.44-.15.15.11h.11l.14.08.15.04.34.07.29.08.15.03.1.07.15.07.07.12.12.1.03.15v.36l-5.53,5.02-.29-.04-.3-.06-.29-.04-.25-.15-.3-.07-.25-.18-.24-.11-.25-.15-.26-.18-.23-.19-.25-.2-.21-.2-.48-.44-.44-.44-.86-.95-.88-.9-.45-.44-.44-.39-.21-.19-.23-.15-.2-.17-.23-.15-.36-.59-.48-.63-.5-.65-.44-.66.14-.18.19-.15.15-.14.19-.1.2-.08.22-.07.22-.03h.7l.2.03h.23l.44.15.41.06Zm-1.76-8.79v.09l.04.14v.06l-.04.13-.02.06-.04.08-.06.11-.06.04-.15.13-.19.12-.15.15-.09.15-.11.06h-.23l-.06-.04-.13-.02-.06-.09-.08-.06-.07-.04-.11-.15-.14-.18-.11-.14-.19-.12-.04-.26v-.23l.08-.24.06-.17.2-.44.21-.4.18-.04h.15l.11.04.14.02.1.09.05.1.09.09.02.15.14.2.11.21.11.13.07.1.14.07.12.09Zm-1.79-6.31v1.42l.05.25v.25l.04.29.06.23.09.25.06.29.11.21.1.21.15.23.19.21.2.22.13-.14.18-.04.15-.04h.18l.15.04h.14l.15.1.15.08.29.18.32.14.15.09.15.04.17.03h.2l.54-.03h.8l.26.07.24.08.23.06.26.04.21.15.19.12.21.14.19.19.15.2.1.21.15.3-.21.33-.23.3-.21.29-.24.25-.29.25-.26.25-.29.25-.3.28-.63.39-.56.45-.67.4-.6.4-.61.44-.54.4-.33.25-.26.25-.25.23-.23.28-.25.27-.17.29-.23.27-.17.32-.14.33-.19.36-.11.36-.09.42.12.26.09.31.05.14v.18s0,.2,0,.2v.13s-.2.22-.2.22l-.2.23-.09.21-.15.25-.07.23-.12.26-.06.25v.29l-.1.5-.09.55v.25l-.04.28-.06.26-.11.23-.11.46-.14.44-.19.43-.18.49-.22.43-.18.4-.26.44-.25.39-.26.44-.29.41-.29.35-.28.4-.29.38-.34.33-.36.37-.34.32-.35.34-.4.33-.37.27-.4.3-.4.25-.35.28-.44.24-.39.2-.49.23-.44.17-.46.19-.4.15-.48.09-.46.15-.48.09-.48.11-.06-.11-.09-.04-.02-.08-.12-.02-.15-.04-.17-.06-.19-.04h-.17l-.15-.06-.15-.1.08-.18.05-.2.1-.17.04-.14.1-.2.1-.14.12-.15.14-.1.25-.22.33-.23.33-.19.32-.17.73-.25.77-.28.33-.15.38-.17.31-.13.34-.23.2-.15.18-.17.21-.15.16-.18.33-.4.33-.36.26-.44.21-.44.19-.4.22-.43.37-.89.59-1.3.25-.4.21-.42.29-.4-.18-.1-.15-.11-.17-.08h-.18l-.15-.03h-.18l-.15.03-.14.08-.18.04-.11.06-.15.1-.19.09-.24.25-.26.29-.58.61-.56.63-.27.28-.31.26-.19.11-.11.11-.18.08-.15.04h-.84l-.42-.04-.44-.08-.38-.07-.45-.1-.39-.13-.35-.11-.36-.14-.38-.17-.36-.19-.3-.25-.33-.25-.29-.29-.26-.3-.25-.38.25-1.26.74-.23.79-.3.78-.25.76-.34.78-.31.7-.37.74-.41.69-.38.73-.45.66-.45.63-.45.65-.55.59-.52.58-.56.26-.29.25-.3.31-.34.2-.29.04-.31v-.29l.05-.34-.05-.31v-.59l-.15-.64-.25-1.23-.29-1.19-.15-.63-.15-.65-.06-.63-.09-.61v-.34s-.01-.33-.01-.33v-.27s.06-.34.06-.34l.04-.35.06-.33.09-.34.11-.34-.19-.5-.16-.6-.08-.33-.15-.29-.04-.29-.06-.32-.04-.29-.04-.34.04-.29.04-.26.06-.15.04-.11.09-.18.06-.1.08-.16.1-.1.15-.1.11-.14.39.04.45.09.38.1.44.1.44.11.4.15.4.13.4.2.39.19.33.26.31.21.34.29.1.15.15.18.13.15.12.17.13.19.06.15.09.21.06.19Zm-49.29-8.54l.1.13.11.1.08.16.07.14.04.15.04.16.03.15v.92l-.03.69v.35l.03.34v.16l.07.13v.17l.07.13.08.1.1.14.11.07.12.11.12.07.19.07.19.04.25.04.12-.23.1-.18.19-.14.19-.15.19-.1.17-.09.23-.06.17-.04h.84l.22.04.21.06.19.09h.18s.12.17.12.17l.15.13.15.09.15.06.32.12.29.14.19.04.14.09.15.06.15.11.15.07.1.15.15.15.06.16v.3l-.06.25-.06.31-.06.26-.09.26-.14.21-.06.23-.19.21-.1.21-.19.23-.15.19-.22.17-.37.4-.45.33-.43.33-.47.3-.49.32-.46.25-.94.52-.84.54-.52.15-.54.15-.55.16-.54.19-.22.1-.25.15-.24.14-.18.19-.16.21-.16.24-.04.1-.06.19-.04.15-.06.13.24.12.21.12.21.06.24.09.2.07.23.04.22.04h.43l.19-.04.21-.04.26-.02.4-.14.39-.1.84-.32.83-.34.45-.19.4-.15.44-.1.4-.06.12-.13.07-.1.15-.04h.1l.11-.03.08.03h.15l.07.04.26.1.22.05h.11l.1.04.13.04h.15l.11.06.16.1.12.15.1.11.1.14.09.13.06.17.11.14.19.59.17.65-.77.52-.74.07-.82.04-.76.04-.83.06h-.8l-.81.05-.8.07-.76.07-.4.07-.37.08-.35.02-.4.08-.37.15-.35.06-.36.15-.37.15-.32.15-.33.18-.34.2-.32.2-.32.25-.26.25-.34.3-.25.29v.41l.06.12.09.13.04.08.11.11.1.1.19.24.26.15.19.1.21.1.39-.04h.53l.16.09h.16l.19.07.18.04.15.11.11.08.16.11.13.1.11.15.15.15.1.19v.29l-.06.15-.04.14-.24.25-.16.21-.13.11-.06.12-.06.15-.08.1v.55l.11.19.8.71.83.77.81.65.84.63.86.7.89.65.83.69.92.69.12.36.06.34.11.29.04.33v.57l-.06.14-.09.19-.06.15-.12.19-.87.17-1.78.37-.92.17-.91.19-.87.25-.43.12-.45.12-.39.14-.41.2-.83.1-.79.08-.4.07-.44.03-.44.06-.36.09-.4.06-.37.14-.2.1-.17.1-.19.07-.15.11-.15.1-.14.12-.15.13-.15.16-.15.14-.11.18-.11.23-.15.18-.35,1.44-.38,1.47-.17.74-.19.69-.19.71-.26.74-.24.69-.25.73-.15.33-.14.32-.21.31-.17.33-.18.31-.19.35-.2.28-.24.3-.25.29-.21.29-.28.26-.27.25-.44-.04-.44-.15-.25-.02-.18-.04-.2-.11-.24-.08-.21-.1-.18-.15-.19-.1-.17-.15-.15-.14-.13-.19-.16-.22-.05-.25-.15-.18-.04-.19-.07-.21-.09-.19-.1-.39-.07-.4v-.84l.03-.39.08-.42.15-.39.11-.37.19-.36.17-.4.23-.39.25-.31.3-.34.24-.24.15-.11.1-.04.08-.1.07-.13.04-.1.04-.1v-.11s.01-1.13.01-1.13l-.14-.15-.16-.15-.15-.1-.19-.04-.19-.04h-.4l-.16.09-.39.07-.42.12-.17.03h-.39l-.23-.03-.58-.81-.52-.75-.1-.19-.19-.19-.15-.15-.15-.17-.16-.11-.18-.14-.26-.14-.24-.13-.03-.24v-.26l.07-.21.05-.25.02-.12.04-.06.08-.12.05-.08.12-.05.1-.06.15-.05.09-.04.8.15.84.09.44.04.45.02.4-.02.44-.04.39-.04.4-.07.39-.15.37-.14.15-.11.17-.08.15-.1.19-.14.14-.11.11-.19.15-.15.08-.21-.08-.27-.05-.32-.02-.28v-.3l.02-.24.05-.34.08-.29.06-.26.19-.54.17-.54.27-.54.22-.5.06-.31.12-.25.07-.28.04-.24.06-.25v-.75l-.02-.27-.09-.25-.1-.2-.11-.26-.19-.27-.21-.26-.24-.25-.31-.25.12-.15.19-.19.2-.15.15-.11.34-.21.39-.25.12-.15.15-.13.15-.13.12-.15.05-.21.06-.19v-.22l-.06-.28-.13-.3-.11-.26-.23-.2-.21-.23-.21-.21-.27-.19-.27-.18-.28-.15-.27-.15-.29-.1-.33-.05-.34-.09-.31-.07-.33-.08h-.66l-.28.08-.23.11-.21.1-.19.16-.17.14-.16.14-.14.19-.12.17-.1.19-.11.19-.05.21-.09.22-.1.43-.08.44-.18.97-.19.93-.06.21-.08.24-.07.21-.12.21-.06.17-.16.2-.15.21-.18.15-.11.4-.2.36-.1.37-.15.4-.2.77-.21.81-.2.8-.23.8-.2.82-.26.76-.15.39-.11.38-.13.4-.2.32-.14.37-.23.36-.21.33-.21.3-.27.34-.26.3-.29.33-.27.25-.32.25-.35.26-.35.28-.4.19-.59.59-.64.61-.2.11-.18.14-.22.07-.22.07-.21.04h-.25l-.29-.04-.26-.1-.14-.11-.1-.14-.12-.15-.06-.14-.08-.15v-.15l-.02-.14v-.15l.02-.28.08-.27.1-.32.11-.25.12-.33.09-.28v-.28l.04-.16-.04-.1v-.29l-.07-.13-.11-.12-.06-.15-.15-.12-.19-.15-.15-.15v-.21l.04-.21.02-.18.04-.24.11-.12.08-.19.1-.15.15-.19.22-.3.33-.29.33-.21.37-.25.37-.25.31-.28.38-.26.36-.27.19-.15.15-.17.1-.15.16-.15.13-.18.11-.19.15-.21.05-.21.74-1.17.68-1.13.33-.59.3-.6.32-.59.29-.63.25-.61.27-.63.26-.61.21-.63.19-.65.17-.64.14-.68.14-.65.18-.19.21-.2.2-.49.08-.25.06-.21v-.25l.04-.29v-.55l-.09-.58-.02-.59-.12-.59-.07-.59v-.84l.04-.25.03-.2.08-.26.11-.25.11-.24.15-.18.18-.21.22-.19.26-.14.26-.16.35-.15.29-.25.34-.29.25-.32.26-.33.2-.36.2-.33.19-.36.19-.33.1-.41.12-.39.03-.39.02-.39v-.79l-.05-.41-.12-.39-.15-.23-.14-.21-.08-.21-.06-.27-.09-.2v-1.32l.04-.54v-.8l-.04-.25.42-.15.18-.04.19-.04.14-.02.15.02.19.04h.12l.14.08.15.07.15.04.15.15.25.19.27.25.21.21.21.3.23.29.21.29.25.31.24.27.2.29.25.21.33.35.34.38.4.4.33.4.13.2.18.23.09.26.1.2.06.28.08.24v.3l-.04.3.04.25-.08.2-.06.2-.08.19-.11.17-.14.14-.15.15-.17.14-.38.24-.41.2-.39.19-.33.17-.17-.1-.18-.07-.22-.09h-.59l-.19.09-.19.07-.4.1-.41.15-.33.19-.36.19-.04.11-.06.11-.09.09-.02.09-.18.17-.19.13-.41.17-.36.19-.18.09-.15.1-.07.06-.07.09v.08l-.07.04-.04.09v.11l-.05.13.05.06.04.19v.11l.07.15.07.18.07.17.1.19.14.2.06.14.15.15.11.12.14.13.19.1.58.44.56.4.29.19.27.21.13.1.12.11.11.14.06.15.08.12.07.2.04.15v.19l.04.21v.2l-.04.28-.04.21.14.19.13.17.12.14.19.13.2.11.15.1.16.08.18.02.2.08h.58l.2-.08.21-.02.16-.08.14-.06.15-.15.13-.13.06-.1.11-.14.11-.26.15-.26.03-.33.09-.29.02-.31.04-.34.04-.65.04-.63.02-.3.08-.34.11-.25.1-.3-.02-.15-.13-.08-.07-.11-.11-.06-.23-.15-.26-.12-.58-.14-.54-.18-.26-.06-.19-.13h-.06s-.08-.14-.08-.14l-.06-.07-.04-.08v-.17l.04-.14.06-.1.08-.14.1-.16.15-.18.19-.19h.57l.29-.07.27-.04.28-.11.26-.08.26-.15.25-.11.22-.19.27-.17.2-.19.19-.21.21-.18.19-.26.15-.21.15-.3.17-.47.19-.59.16-.5.29-1.67.2-1.13.13-.55.11-.55.14-.54.15-.54.16-.54.28-.49.1-.26.15-.23.14-.25.15-.24h.65l.5-.04.48.04h.64l.16.11.19.13.15.2.14.13.21.3.22.36.12.14.11.16.11.15.15.11.15.08.14.11.22.04.23.02Zm-49.05-22.11h1.29s.64.16.64.16l.6.12.63.16.58.16.62.15.59.23,1.18.35,1.19.4.63.19.56.15.63.06.65.1.15.15.11.13.15.15.15.1.28.22.34.18.74.37.69.33.32.19.33.21.1.1.11.1.15.13.12.15.1.14.05.17.11.14.02.23.04.17v.67l-.17.25-.15.16-.23.19-.19.18-.16.19-.19.11-.2.14-.2.08-.25.1-.23.08-.21.07-.24.04-.46.09h-.5s-.99.05-.99.05l-1.02.04-.48.04-.5.02-.48.09-.46.11-8.29-.5-.13.02-.14.09-.11.06-.32.26-.21.23-.4.43-.44.45.08.21.11.2.06.23.15.19.13.17.14.19.19.13.14.2.33.29.36.25.39.31.4.23.81.46.84.55.35.33.35.29.19.13.2.2.15.21.16.18h.59l.3.02.21.13.28.05.2.2.24.15.21.21.04.23-.04.21-.04.19-.07.16-.1.19-.12.16-.15.17-.14.15-.32.25-.37.21-.36.2-.34.19-.29.06h-.26l-.2.04h-.25l-.25-.04h-.27l-.21-.06-.26-.09-.4-.14-.44-.17-.4-.19-.44-.23-.39-.18-.41-.17-.21-.07-.22-.09-.23-.06-.21-.04h-.69l-.25.04-.23.03-.26.12-.25.07-.3.14-.33-.1-.37-.09-.4-.02-.39-.09-.44.05-.39.04-.19.02-.15.05-.19.08-.17.06-.13.4-.21.4-.19.4-.15.42-.1.42-.11.42-.1.42-.08.43-.15.89-.11.89-.06.92-.04.9-.06,1.87-.05,1.89-.04.94v.93l-.06.9-.13.89.19.79.15.77.1.77.15.8.11.75.15.84.19.73.21.75.15.38.13.36.15.35.17.34.2.36.19.33.2.33.21.31.24.3.29.29.31.3.31.25.33.24.39.29.36.25.48.2.84.55.73.55.19.19.17.1.15.19.18.15.11.21.15.19.1.19.11.21-.2.1-.19.13-.22.06-.25.1-.18.04-.44.06h-.7l-.46-.06-.48-.04-.45-.1-.98-.21-.98-.24-.5-.06-.51-.08h-.73l-.26.05-.18-.23-.19-.12-.22-.19-.19-.11-.21-.12-.25-.07-.26-.08-.26-.02-.46-.04-.55-.04h-2.12s-.23-.1-.23-.1l-.21-.07-.23-.04-.2-.1-.21-.13-.2-.15-.19-.15-.2-.21-.12-.19-.14-.25-.15-.28-.12-.33-.17-.25-.15-.29-.15-.3-.11-.25-.15-.29-.04-.3-.06-.24-.09-.34-.04-.29-.03-.3v-.33l-.03-.31.03-.63.03-.61.15-1.28.19-1.27.06-.65.05-.63.04-.61-.04-.67.29-.68.25-.7.24-.71.26-.69.44-1.47.4-1.44.25-.7.29-.7.25-.69.33-.7.29-.63.4-.65.21-.35.19-.3.24-.3.22-.34-.07-.19-.1-.15-.1-.17-.15-.1-.13-.05-.05-.08h-.11l-.13-.02-.1-.04h-.11l-.06.04-.15.02-6.53,6.06-.5.25-.46.29-.52.28-.47.3-.52.3-.47.24-.29.06-.25.12-.29.07-.26.06-.27.29-.27.25-.3.25-.28.19-.31.21-.3.21-.29.19-.33.23-.32.15-.34.17-.33.13-.36.15-.33.1-.31.15-.38.1-.31.09-.35.07-.4.12-.34.03-.35.04-.36.09h-.39l-.35.02h-.38l-.36-.02h-.35l-.38-.04-.35-.08-.36-.03-.37-.08-.36-.1-.38-.09-.29-.21-.24-.15-.32-.21-.29-.12-.67-.25-.66-.21-.29-.11-.29-.14-.29-.15-.27-.19-.28-.18-.24-.25-.07-.15-.11-.11-.12-.19-.12-.15-.43-.25-.46-.29-.26-.17-.26-.15-.22-.18-.2-.21-.19-.24-.24-.21-.14-.25-.15-.23-.07-.25-.05-.29-.09-.15v-.5l.05-.11.04-.12.11-.1.17-.1.14-.23h1.03l.25.27.3.29.25.21.26.22.29.27.29.16.29.24.29.17.29.19.3.15.34.18.31.15.33.15.33.1.33.14.33.07.31.11.34.07.33.07.36.04.33.04.36.04h1.05l.33-.09.35-.04.38-.07.33-.03.36-.1.36-.06.38-.15.5-.13.5-.15.48-.17.46-.18.48-.15.43-.19.44-.25.44-.18.44-.27.39-.28.4-.27.44-.29.4-.33.4-.35.39-.39.4-.43h.51l.07-.16.11-.19.22-.3.26-.28.29-.3.61-.55.58-.53.29-.25.22-.29.09-.15.09-.1.06-.15.05-.15.09-.18v-.47l-.06-.19-.03-.15-.06-.18-.13-.17-.4-.04h-.4l-.39.04-.4.02-.4.04-.4.11-.39.08-.4.1-1.61.52-1.57.53-.35.1-.4.07-.4.08-.37.04-.4.03-.32.04-.4-.04-.33-.03-.38-.08-.36-.11-.35-.15-.33-.18-.34-.21-.65-.63-.29-.31-.21-.25-.08-.23-.1-.22v-.23l-.06-.46-.05-.43v-.19l-.04-.22v-.22l-.04-.21-.07-.23-.07-.2-.13-.21-.19-.24.05-.28.09-.26.04-.3.02-.29.09-.58.06-.55.04-.29.07-.28.08-.26.12-.26.1-.24.14-.25.15-.23.24-.16.28-.15.25-.1.25-.08.22-.04h.48l.2.04.19.08.21.05.19.09.19.11.19.14.32.26.33.25.32.33.33.3.33.29.36.25.14.15.2.06.2.1.19.06.21.09h.7l9.81,1.24.64-.59.63-.63.6-.61.59-.62.64-.61.56-.67.54-.61.59-.7,1.13-1.32,1.09-1.34,1.13-1.32,1.17-1.34.07-.14.14-.15.04-.1.07-.19.07-.29.07-.31v-.3l.04-.32-.04-.3v-.91l.04-.29.1-.34v-.15s.05-.1.05-.1l.09-.19.06-.09.06-.15.13-.16.15-.14.1-.14h.21l.23-.03h.39l.4.03.33.08.36.14.36.15.33.17.3.19.61.37.67.36.32.21.33.15.36.1.38.14Zm143.38-5.33l-.14.25-.06.25-.04.24v.46l.04.23v.25s.06.21.06.21l.09.23.05.3.06.2v.48l-.1.21-.1.24-.1.25.1.35.1.34.04.31.06.38-.06.31v.32l-.05.35-.04.35-.1.65-.09.69-.05.37v.37l.05.35.04.38-.15.14-.1.05-.14.06-.15.08h-.44l-.26-.13-.25-.1-.27-.14-.21-.19-.26-.17-.25-.15-.28-.15-.26-.11-.15-.05-.16-.03-.15-.05h-.18l-.15.05-.15.03h-.19l-.15.07-.4-.48-.39-.52-.44-.5-.39-.46-.15-.28-.15-.29-.11-.25-.1-.27-.04-.15v-.61l.08-.14.02-.1.04-.19.59-.94.59-.93.55-.9.54-.94.58-.93.61-.89.29-.44.38-.44.32-.44.37-.44.17-.02h.15l.14.02h.16l.09.08h.13l.11.07.06.08.09.07.06.08.05.11.06.1.08.18.06.27.09.5.04.54v.27s.06.26.06.26l.09.18.05.21Zm1.28-3.25l.11.19.11.19.11.21.08.19.07.17.08.23.04.21v.19l.06.44v.84l-.05.44-.02.9-.04.88v.44l.04.44.02.39.13.44-.09.35-.05.35v.38l-.02.35.02.8.05.81.09.82.06.88.04.83.05.84v.44l-.05.4v.4l-.04.39-.06.38-.09.4-.11.36-.15.33-.15.36-.19.34-.25.29-.2.31-.29.3-.35.23-.34.25-.4.2.02.15.08.2v.84l-.14.63-.1.54-.09.26-.02.24v.25l.02.25.09.16v.1s.06.15.06.15l.1.13.08.05.15.16.1.1.14.08.37-.34.38-.33.34-.31.34-.38.62-.72.62-.69.58-.73.57-.79.64-.7.58-.78.21-.15.2-.08.21-.03h.52l.16.06.15.09.37.18.33.21.32.21.3.28-.04.55-.04.56.04.63v.65l.04.67.04.61v.66l-.04.67-.04.31v.3l-.05.33-.05.3-.09.3-.07.29-.1.28-.15.28-.1.28-.15.23-.19.29-.21.2-.23.26-.25.24-.3.21-.29.18.05.19v.31l-.08.15-.06.33-.11.29-.33.66-.35.58-.15.29-.11.3-.05.13-.07.15-.03.18v.26l.03.14.04.1.03.15.07.19.12.1.11.15.15.11h.31l.25-.11.31-.06.27-.19.27-.15.27-.2.22-.2.25-.26.94-.98.87-.99.23-.21.21-.18.21-.19.23-.15.21-.1.23-.11.26-.03h.2l.25.03.23.06.24.15.26.19.25.26.28.33.27.39.29.45-.02.31-.12.29-.1.26-.15.28-.16.28-.23.25-.25.25-.26.25-1.12.9-1.09.84-.23.22-.25.19-.19.21-.17.2-.14.23-.09.21-.06.23-.04.21.04.25.06.26.15.27.18.25.27.29.34.25.39.29.51.29.08.24.06.26.11.24.12.24.25.5.29.44.25.46.29.44.29.49.26.51.31.54.27.62.22.59.23.61.16.65.15.67.11.65.04.66-.46.43-.57.35-.49.38-.56.34-.58.25-.54.25-.58.21-.61.23-.64.15-.59.15-.64.1-.61.07-.67.08-.69.04h-1.34l-.14-.19-.2-.14-.13-.2-.15-.19-.03-.1-.08-.1v-.3l.08-.1.07-.11.11-.08.19-.21.23-.24.21-.15.19-.19.44-.34.46-.29.95-.55.98-.45.48-.25.46-.27.43-.27.44-.33.2-.2.2-.16.19-.19.15-.23.19-.18.1-.24.18-.27.15-.29-.11-.27-.14-.34-.1-.32-.16-.33-.19-.33-.15-.3-.16-.3-.19-.28-.44-.62-.45-.54-.5-.55-.43-.59-.25.05-.25.03-.23.12-.21.06-.21.18-.22.15-.19.15-.17.17-.38.4-.31.44-.31.39-.33.38-.3.35-.29.38-.28.36-.23.35-.25.4-.26.39-.22.38-.21.38-.4.8-.37.83-.35.8-.34.84-.17.19-.23.15-.16.11-.28.08-.2.12-.25.06-.24.04-.25.04h-.75l-.25-.04-.27-.04h-.26s-.24-.1-.24-.1l-.21-.07-.23-.1-.22-.12-.18-.16-.15-.13-.15-.17-.1-.19-.09-.21-.07-.19-.08-.23v-.65l.04-.24.1-.18v-.21s.1-.23.1-.23l.65-.73.69-.81.74-.8.65-.79.33-.43.3-.44.3-.45.24-.41.21-.49.19-.48.07-.21.08-.26.07-.24.03-.27.45-.47.54-.49.54-.56.55-.55.19-.26.21-.3.18-.34.19-.34.07-.14.04-.17.04-.19.04-.18.04-.17v-.19l-.04-.19v-.22l-.15-.03-.13-.07-.1-.08-.14-.07-.06-.09-.12-.1-.06-.08-.04-.11-.11-.25-.06-.2-.05-.25-.04-.3v-.29l.04-.25.05-.3.02-.29.1-.53.09-.5.19-.25.15-.29.17-.25.22-.29.37-.55.35-.59.15-.25.09-.33.11-.29.08-.31v-.3l-.05-.17-.03-.19-.04-.16-.07-.16-.04-.19-.15-.14-.05-.19-.06-.06-.09-.08-.06-.06-.1-.04h-.09l-.06.04h-.08l-.28.19-.37.22-.21.08-.16.11-.14.14-.1.15-.09.14-.06.16-.05.15-.04.23-.05.32-.02.37-.09.17-.06.14-.08.15-.15.15-.15.4-.17.41-.19.4-.19.4-.43.72-.42.72-.48.69-.5.69-.53.69-.5.67-1.09,1.34-1.08,1.33-.54.71-.54.69-.46.74-.52.72-.15.3-.11.31-.06.29-.12.33-.07.65-.06.68v.34l-.09.36-.06.34-.09.33-.11.25-.19.31-.06.15-.1.1-.08.15-.16.14h-.47l-.26.09-.25.05-.5.15-.53.14-.25.04-.24.04-.21-.04-.24-.04-.15-.06-.06-.04-.15-.06-.09-.09-.1-.05-.06-.14-.1-.14-.09-.15-1.28-3.01.44-.4.36-.4.34-.44.29-.43.25-.44.23-.42.21-.44.19-.49.35-.9.29-.96.19-.46.21-.5.19-.49.21-.5,1.07-1.42,2.03-2.81.98-1.43.47-.75.48-.69.48-.73.44-.73.42-.76.43-.73.39-.78.4-.75v-.25l-.04-.25-.04-.27-.06-.2-.09-.21-.11-.2-.09-.19-.11-.15-.18-.19-.11-.15-.18-.19-.2-.15-.39-.29-.4-.3-.22-.06h-.37l-.14.06-.16.08-.16.12-.18.1-.15.12-.3.27-.3.34-.24.33-.25.32-.25.26-.24.22-.11.05-.1.04-.11.04-.1-.04-.09-.04-.11-.05-.08-.12-.07-.13-.1-.24-.09-.26-.06-.31-.09-.38v-.1l-.02-.11-.04-.11-.08-.09-.17-.18-.2-.15-.25-.02h-.24l-.28.02-.21.08h-.06l-.13.07-.06.08-.11.07-.08.12v.11l-.06.11v.1l.25.24-.11.44-.08.5-.06.42v.51l-.05.94-.05.98-.06.49-.04.4-.09.25-.06.19-.06.22-.09.19-.1.2-.15.19-.11.19-.14.15-.19.16-.2.11-.21.15-.23.15.09.04.06.03.09.04v.07l.04.1.02.14-.06.3.04.25-.04.14-.05.11v.52l.05.25.15.48.21.54.08.22.07.24.04.25v.38l-.04.15-.02.14-.08.11-.05.15-.1.1-.07.15-.14.11-.29-.04-.33-.06-.26-.06-.34-.14-.24-.13-.26-.14-.2-.17-.23-.2-.25-.2-.2-.19-.23-.26-.21-.23-.39-.5-.44-.51-.35-.51-.39-.51-.45-.48-.44-.42-.2-.23-.23-.22-.25-.19-.25-.19-.25-.15-.25-.1-.28-.1-.3-.1h-.19s-.15.01-.15.01l-.15-.05-.11-.05-.21-.2-.23-.19-.05-.22v-.34l.09-.19.05-.15.1-.15.1-.1.15-.1.26-.26.3-.23.28-.17.25-.15.34.04.36.1.33.07.34.1.27.15.33.13.3.21.33.1.56.37.63.32.63.38.61.29.15-.22.1-.19.09-.17.06-.19.04-.19.05-.15-.05-.17v-.14l-.08-.16-.07-.14-.08-.16-.11-.13-.21-.25-.25-.25-.63-.53-.6-.5-.3-.29-.3-.29-.08-.15-.1-.17-.06-.15-.09-.18-.47-.73-.48-.75-.48-.78-.5-.75-.29-.38-.3-.36-.29-.33-.31-.24-.3-.34-.39-.25-.34-.21-.41-.14-.1.1-.18.04-.15.06-.11.05h-.15l-.15-.05-.14-.03-.15-.04-.27-.11-.33-.14-.11-.04-.15-.08h-.14l-.15-.07h-.07l-.03-.04-.09-.07-.03-.04-.04-.1v-.73l.3-.19.29-.1.31-.11.29-.12.39-.03.31-.05h.67l.69.05.71.03.74.12.7.11.37.04h.36l.36.04h.33l.35-.04.34-.04.29-.05.34-.06.3-.12.34-.13.24-.19.3-.19.29-.26.25-.29.22-.32.23-.39.19.04h.13l.15-.05.13-.04.2-.23.21-.21.09-1.1.15-1.21v-.57l.06-.63v-1.2l-.02-.59-.09-.51-.04-.32-.1-.25-.06-.25-.08-.28-.11-.25-.14-.21-.12-.25-.19-.19-.17-.21-.23-.19-.21-.19-.23-.17-.04-.27v-.25l.04-.21.04-.23.07-.11.08-.1.05-.08.06-.11.1-.04.08-.07.15-.04h.15l.22.04h.23l.2-.04.21-.06.38-.14.37-.2.36-.19.4-.13.21-.04.19-.05h.21l.25.05.29.1.26.15.22.19.16.14.09.17.16.19.04.19.06.21.05.25v.22l-.05.22v.24l-.1.49-.16.5v.84l.05.08.04.1.03.12.08.08.04.11.06.06.1.05.11.06h.19l.19-.06.18-.09.14-.11.15-.09.15-.12.15-.1.11-.2.42-.63.34-.6.29-.63.27-.61.33-.67.31-.57.19-.34.21-.24.19-.25.25-.25.29-.19.29-.23.34-.17.32-.14h.55l.26.06.2.08.25.07.21.15.2.15.24.15.21.2.2.19.15.2.2.21.3.44.33.4Z"/>
  <path class="cls-1" d="m144.12,117.42c1.44,1.99,1.41,4.03-.8,6.12-4.82,4.96-5.43,10.87-4.1,17.2.38,2.37,3.68,2.69,4.05-.08.23-2.92.1-6.28,1.05-9.87.85-2.39,3.06-2.04,3.21,0,.29,9.85-2.17,15.49-5.44,21.22-1.51,4.26,2.13,6.16,3.52,4.47,2.83-3.83,5.09-10.06,5.74-22.95,0-8.23-.23-15.96-2.58-19.43-2.44-4.17-7.63-2.5-4.65,3.31Zm36.6-3.75c.23-1.4-1.78-2.12-2.66-1.28-1.65,1.69-2.16,4-2.05,6.67.58,10.79,1.45,17.85,1.44,24-.4,3.84-1.2,6.25-2.47,6.94.63.39-.02,2.72,1.55,4.6,1.21.64,2.2.13,2.89-2.03.73-2.2,1-5.58,1.09-9.51.01-3.76.02-7.52.04-11.27,1.95-2.05,2.79-5.76,2.93-10.49.59-2.93,2.85-2.89,2.9-1.15-.26,1.13-1.06,1.94-1.04,2.9.17,1.67,2.66,2.28,3.36,2.98,1.15,1.39-.84,5.24-1.28,8.65-.19,1.02.18,1.03.59,1.45.89.88,1.74,2.24,1.76,3.6.03,2.27-1.78,4.96-1.65,8.73,1.26,2.4,2.5,6.82,3.79,7.21,2.04.52,2.6-1.24,3.06-2.02-.03-4.82,3.19-3.84,3.54-5.48,1.17-1.74.24-2.53-.67-2.67-3.48-1.33-2.31-3.1-3.48-4.65-.87-5.09,3.81-4.37,3.81-6.23.19-2.59-2.8-3.21-4.19-4.8-1.02-1.8-.4-5.26,1.95-5.54.89-.08,1.35-.16,2.24-.25,1-.13,2.15-2.45.84-3.27-1.05-.53-1.5-1.57-1.29-3.14.02-1.4.06-2.8.1-4.2-.27-1.24-2.24-1.61-3.08-.71-1.43.9-1.67,3.47-2.73,5.41-1.4.86-1.94-3.9-5.07-5.26-2.5-.89-3.74.65-4.38,2.35-.59,2.76-1.18,5.52-1.76,8.28-.48,1.46-2.41,1.38-1.89-.73.42-4.09,1.22-6.05,1.82-9.07Zm-7.86,21.5c.1-1.93,2.82-1.13,2.7.94.19,5.65.38,11.3-1.72,16.64-.79,1.26-3.85.52-3.46-1.76,1.37-5.28,1.99-10.02,2.49-15.82Zm.03-23.07c-2.42,4.4-2.87,9.41-2.42,14.71.81,3.94,3.7,2.85,3.46.67-.54-5.64.09-10.4,2.45-13.87.67-1.87-2.59-2.94-3.5-1.51Zm-14.06-.39c1.49-1.81,4.47-.36,3.56,2.25-1.86,6.02-2.22,10.45.73,11.31,3.04,1.06,3.69,6.37,3.01,14.07-.29,2.73-3.35,3.19-4,.52-.29-3.29-.57-6.56-.86-9.84-.53-2.34-2.67-2.84-2.96.24-.43,7.66,1.29,14.78,4.64,21.5.8,1.91-2.31,6.88-4.98,2.73-2.17-4.86-3.41-11.43-3.28-20.52-.11-9.28-.04-17.22,4.12-22.26Zm26.89,76.59l-.55,3.29c.38-.26.71-.44,1-.55.49-.2,1.07-.28,1.72-.28,1.19,0,2.21.37,3.06,1.13,1.02.9,1.54,2.14,1.54,3.77,0,1.38-.36,2.55-1.07,3.5-.97,1.3-2.45,1.95-4.44,1.95-1.34,0-2.45-.36-3.37-1.07-1.06-.83-1.58-1.95-1.58-3.4h2.99c.08.66.29,1.17.64,1.53.35.36.84.55,1.48.55.71,0,1.25-.26,1.67-.79.4-.53.6-1.22.6-2.07,0-.73-.16-1.36-.51-1.85-.38-.57-.97-.86-1.71-.86-.4,0-.72.04-.94.13-.46.17-.81.49-1.07.97l-2.68-.13,1.05-8.35h8.35v2.53h-6.18Zm-15.87,8.9h2.98c.08.52.29.9.58,1.14.32.25.7.38,1.17.38.69,0,1.27-.3,1.71-.93.52-.74.79-1.85.79-3.31l-.09-.04c-.31.47-.75.81-1.3,1.03-.44.17-.97.25-1.56.25-1.39,0-2.49-.46-3.34-1.39-.83-.91-1.24-2.04-1.24-3.37,0-1.78.49-3.16,1.48-4.12.9-.88,2.14-1.32,3.68-1.32,1.79,0,3.13.63,4.02,1.89.91,1.26,1.34,3.24,1.34,5.91s-.57,4.74-1.72,6.1c-.97,1.13-2.23,1.69-3.79,1.69-1.3,0-2.37-.35-3.23-1.05-.86-.7-1.35-1.65-1.48-2.87Zm2.7-6.65c0,1.05.23,1.8.68,2.25.37.35.9.53,1.56.53.58,0,1.07-.2,1.5-.6.47-.45.7-1.11.7-1.95,0-.9-.19-1.58-.57-2.07-.37-.49-.95-.73-1.72-.73-.55,0-1.01.15-1.37.45-.52.44-.79,1.15-.79,2.12Zm-8.06,5.78c0-.64-.16-1.18-.47-1.59-.39-.52-.98-.79-1.76-.79-.6,0-1.09.19-1.48.56-.43.43-.67,1.02-.67,1.79s.21,1.34.6,1.77c.38.44.92.66,1.61.66.73,0,1.28-.26,1.66-.79.33-.45.49-.97.49-1.61Zm3.08-.13c0,1.21-.37,2.27-1.11,3.16-.96,1.18-2.34,1.76-4.15,1.76s-3.15-.51-4.09-1.52c-.77-.86-1.18-1.89-1.18-3.11,0-.72.1-1.32.29-1.78.35-.92,1.03-1.6,2.03-2.06-1.23-.62-1.84-1.6-1.84-2.98,0-1.26.45-2.25,1.34-3.02.9-.75,2.03-1.13,3.38-1.13,1.53,0,2.72.39,3.6,1.18.81.73,1.22,1.65,1.22,2.78,0,.69-.14,1.29-.42,1.8-.28.53-.72.94-1.34,1.26.77.39,1.33.83,1.67,1.36.41.59.61,1.36.61,2.3Zm-5.24-4.51c.56,0,1.02-.18,1.35-.53.34-.34.5-.8.5-1.36s-.16-1.01-.5-1.36c-.33-.35-.75-.53-1.25-.53-.67,0-1.17.17-1.52.5-.35.34-.53.8-.53,1.38,0,.48.18.92.51,1.31.35.38.82.58,1.44.58Zm-17.04-1.43v-2.09h.42c1.31,0,2.29-.3,2.93-.88.52-.48.79-1.07.79-1.76h2.45v15.19h-2.99v-10.47h-3.61Zm37.53-56.4c.34-1.06,2.12-.26,2.5,2.02.63,5.55.36,11.31-.98,17.33-.37,1.46-3.68,1.62-3.38-1.21,1.42-6.19,2.03-12.21,1.86-18.15Zm-60.58-10.01c18.67,10.47,16.38,32.83-5.3,41.16,3.68,27.32,18.28,50.55,51.15,64.51,35.39-15.45,45.28-34.84,51.28-63.93-16.17-4.01-24.86-27.56-4.06-41.02-1.55-7.35-4.53-14.57-8.81-21.65-14.92,2.33-27.43.17-37.18-7.25-7.39,6.16-19.64,8.86-38.32,6.97-3.69,7.02-7.01,14.71-8.75,21.21Z"/>
  <path class="cls-1" d="m118.92,126.05c19.67,8.59,14.79,32.91-5.53,36.48,3.96,29.35,19.24,58.54,54.73,70.72,38.01-16.58,50.84-42.58,55.24-70.86-18.55-.52-25.57-29.33-4.29-35.31-1.7-10.94-7.29-21.35-10.57-27.22-16.01,2.51-29.32.71-39.09-9.17-7.53,7.82-18.15,11.93-38.82,8.11-3.55,5.44-10.84,16.41-11.66,27.24Zm-14.34,9.82c25.26-5.67,18.94,24.7-2.27,11.05-1.48,46.76,24.24,83.48,66.14,97.87,59.99-23.29,65.73-70.56,65.71-96.87-22.32,13.61-25.74-17.55-1.78-11.06-1.27-19.61-15.24-46.82-19.01-50.49-24.31,9.76-32.26.49-43.79-11.17-7.86,8.48-19.78,22.33-44.74,10.29-4.19,6.41-19.86,32.37-20.27,50.38Z"/>
  <path class="cls-1" d="m169.09,49.37l5.77.4.62-8.9,1.53.11c1.26.09,2.28,0,3.1-.3.79-.3,1.34-.76,1.69-1.39.34-.61.55-1.64.65-3.06l.13-1.91c.1-1.39.09-2.41,0-3.1-.12-.67-.35-1.23-.76-1.73-.38-.49-.98-.89-1.81-1.2-.83-.3-2.02-.53-3.58-.63l-5.79-.41-1.55,22.13Zm8.47-17.5c.23.26.3.76.25,1.5l-.13,1.83c-.06.82-.2,1.33-.41,1.59-.21.23-.6.34-1.12.31-.11,0-.25-.02-.41-.05l.39-5.6c.74.05,1.22.2,1.42.43Z"/>
  <path class="cls-1" d="m165.42,27.41c-1.56.03-2.73.19-3.5.5-.79.32-1.27.76-1.51,1.34-.24.58-.32,1.81-.29,3.68l.2,11.34c.03,1.86.16,3.09.42,3.66.26.57.76,1,1.53,1.29.75.29,1.95.4,3.54.38l1.75-.03-.05-2.9c-.82.01-1.32-.03-1.56-.11-.22-.08-.36-.24-.45-.49-.09-.24-.15-.87-.17-1.89l-.2-11.33c-.02-1.1.02-1.75.13-1.97.1-.25.27-.39.48-.47.22-.06.71-.09,1.48-.11l-.05-2.9-1.75.03Z"/>
  <path class="cls-1" d="m145.07,29.62c-.12,3.55-.13,6.5-.04,8.91-.4-1.46-1.36-4.27-2.9-8.39l-5.23.92,6.45,13.24,1.39,7.9,5.26-.93-1.39-7.9,1.7-14.67-5.23.92Z"/>
  <path class="cls-1" d="m217.84,36.31c-1.78,3.08-3.17,5.68-4.22,7.84.34-1.48.8-4.41,1.38-8.77l-5.05-1.64-.52,14.72-2.48,7.63,5.08,1.65,2.48-7.63,8.39-12.16-5.05-1.64Z"/>
  <path class="cls-1" d="m121.99,34.7l1.15,4.28,3.31-.89,4.59,17.14,5.58-1.5-4.59-17.14,3.28-.88-1.15-4.29-12.17,3.26Z"/>
  <path class="cls-1" d="m227.24,40.32l-12.71,18.42,5.32,2.71,2.13-3.4,1.85.94-1.55,3.7,5.25,2.67,7.12-21.27-7.42-3.78Zm-3.54,14.18c1.03-1.66,2.75-4.25,5.23-7.79-1.45,3.44-2.58,6.34-3.45,8.69l-1.78-.91Z"/>
  <path class="cls-1" d="m120.38,59.28l-7.95-20.71,5.39-2.07,7.95,20.71-5.39,2.07Z"/>
  <path class="cls-1" d="m247.16,51.46l-5.3,8.48,2.56-10.19-4.09-2.55-11.75,18.81,4.09,2.55,5.34-8.54-2.79,10.14,4.27,2.67,11.75-18.81-4.09-2.55Z"/>
  <path class="cls-1" d="m110.81,45.77c-.79-1.56-1.51-2.61-2.17-3.11-.63-.51-1.54-.72-2.69-.69-1.16.07-2.4.42-3.74,1.11-1.22.62-2.14,1.34-2.82,2.18-.65.82-.98,1.7-1.01,2.6-.04.88.33,2.1,1.11,3.62.53,1.05,1.12,1.83,1.73,2.38.6.52,1.22.89,1.83,1.06.6.16,1.78.36,3.47.54,1.7.21,2.81.38,3.34.57.49.18,1.04.89,1.62,2.03.27.54.4.97.36,1.32-.03.35-.2.63-.54.8-.34.17-.64.2-.89.05-.23-.16-.54-.58-.93-1.34l-1.22-2.39-4.78,2.44.66,1.29c.76,1.49,1.48,2.54,2.2,3.18.7.66,1.69,1.02,2.92,1.03,1.24.01,2.54-.31,3.91-1.01,1.27-.65,2.26-1.43,2.95-2.36.73-.92,1.08-1.81,1.07-2.67-.02-.82-.37-1.93-1.09-3.35-.99-1.95-2-3.19-3.03-3.77-1.04-.54-3.06-.93-6.02-1.14-1.04-.05-1.74-.22-2.09-.47-.33-.23-.69-.69-1.03-1.35-.26-.51-.37-.92-.34-1.27.02-.32.18-.55.5-.71.27-.14.54-.15.75-.04.22.13.49.55.84,1.23l.75,1.46,4.78-2.44-.4-.78Z"/>
  <path class="cls-1" d="m261.59,72.06c1.16-1.38,1.93-2.56,2.3-3.51.34-.96.33-2.05-.09-3.29-.42-1.25-1.26-2.42-2.54-3.49-1.32-1.11-2.65-1.69-4-1.79-1.33-.08-2.4.17-3.18.76-.8.58-1.87,1.68-3.25,3.32l-4.22,5.03c-.99,1.17-1.68,2.09-2.09,2.75-.39.64-.66,1.38-.76,2.18-.12.83,0,1.67.34,2.57.35.9.89,1.67,1.62,2.29.63.53,1.28.86,1.95.96.67.14,1.39.05,2.14-.21l-.62,1.55,2.79,2.34,7.66-9.13-5.16-4.33-2.17,2.58.86.72-1.69,2.01c-.67.8-1.17,1.27-1.51,1.45-.33.19-.69.14-1-.13-.27-.23-.38-.53-.27-.83.11-.34.49-.88,1.12-1.63l6.85-8.16c.72-.86,1.22-1.37,1.5-1.49.26-.14.54-.08.81.14.32.26.4.55.29.85-.13.32-.6.97-1.41,1.93l-1.3,1.55,4.43,3.71.62-.73Z"/>
  <path class="cls-1" d="m94.43,75.01l4.73-3.31-5.73-8.19c.65-.46,1.11-.61,1.42-.5.33.14.82.69,1.5,1.66l4.22,6.03,4.4-3.08-3.36-4.8c-1.02-1.46-1.69-2.32-1.98-2.59-.33-.27-.78-.49-1.36-.65-.58-.16-1.43-.04-2.54.38.97-.81,1.46-1.59,1.47-2.34,0-.71-.49-1.8-1.48-3.21-1.08-1.55-2.12-2.5-3.11-2.87-.98-.35-1.95-.34-2.84.05-.91.37-2.5,1.35-4.72,2.9l-3.34,2.34,12.72,18.17Zm-4.52-18.87c.33.04.71.34,1.1.9l.71,1.01c.57.81.78,1.36.68,1.63-.09.3-.43.63-.94.99l-2.83-4.04c.54-.38.96-.54,1.29-.5Z"/>
  <path class="cls-1" d="m85.45,82.83l7.66-6.43-2.85-3.4-3.23,2.71-3.13-3.73,2.75-2.31-2.71-3.23-2.75,2.31-2.71-3.23,2.94-2.46-2.85-3.4-7.36,6.18,14.26,16.99Z"/>
  <path class="cls-1" d="m278.62,80.5l-12.71,10.29c-.85.69-1.44,1.1-1.74,1.2-.28.13-.55.02-.77-.26-.19-.23-.22-.49-.06-.73.14-.26.58-.68,1.34-1.3l12.92-10.46-3.64-4.49-10.19,8.25c-1.96,1.59-3.2,2.66-3.75,3.21-.57.56-.95,1.26-1.17,2.08-.23.85-.21,1.79.09,2.85.3,1.06.87,2.12,1.7,3.14.76.94,1.56,1.62,2.39,2.08.85.44,1.72.65,2.62.63.88-.04,1.64-.24,2.22-.56.6-.35,1.55-1.04,2.87-2.11l11.51-9.32-3.64-4.49Z"/>
  <path class="cls-1" d="m63.21,74.02l2.87,3c2.27,2.44,4.92,5.19,7.97,8.2-3.42-2.54-7.65-5.56-12.72-9.03l-3.99,4.59,18.93,12.03,5.75-6.61-14.82-16.77s-3.99,4.59-3.99,4.59Z"/>
  <path class="cls-1" d="m289.53,95.63l-8.38,5.44,6.62-8.15-2.62-4.04-18.6,12.08,2.62,4.04,8.45-5.49-6.81,8.02,2.74,4.23,18.6-12.08-2.62-4.04Z"/>
  <path class="cls-1" d="m69.97,101.03l-17.95-13.04,3.4-4.67,17.95,13.04-3.4,4.67Z"/>
  <path class="cls-1" d="m274.61,114.34l20.1-9.37,2.44,5.24-20.1,9.37-2.44-5.24Z"/>
  <path class="cls-1" d="m46.69,96.63l8.66,5-10.27-2.2-2.41,4.17,19.21,11.09,2.41-4.17-8.73-5.04,10.23,2.43,2.52-4.36-19.21-11.09-2.41,4.17Z"/>
  <path class="cls-1" d="m301.91,122.58l-4.03.98c-3.25.74-6.95,1.67-11.08,2.8,3.91-1.69,8.64-3.84,14.18-6.51l-1.98-5.75-19.88,10.38,2.85,8.29,21.93-4.45-1.98-5.75Z"/>
  <path class="cls-1" d="m37.81,114.23l15.16,6.12c1.02.41,1.66.73,1.89.94.25.19.28.47.15.8-.11.28-.32.43-.61.4-.29,0-.87-.18-1.79-.54l-15.41-6.23-2.17,5.36,12.16,4.91c2.34.94,3.88,1.51,4.62,1.72.77.22,1.57.22,2.39.02.86-.22,1.66-.69,2.45-1.46.79-.77,1.43-1.78,1.92-3,.45-1.12.66-2.15.66-3.1-.03-.96-.27-1.82-.72-2.6-.47-.75-1-1.32-1.57-1.67-.59-.36-1.66-.85-3.24-1.49l-13.74-5.55-2.16,5.36Z"/>
  <path class="cls-1" d="m283.02,136.61l2.42,9.7,4.3-1.07-1.02-4.09,4.73-1.18.87,3.48,4.09-1.02-.87-3.48,4.09-1.02.93,3.72,4.3-1.07-2.33-9.33-21.52,5.37Z"/>
  <path class="cls-1" d="m285.78,148.29l.8,5.72,9.9-1.39c.11.79.04,1.26-.2,1.49-.27.23-.99.42-2.16.58l-7.3,1.03.75,5.31,5.8-.82c1.76-.25,2.84-.45,3.21-.59.39-.16.79-.47,1.2-.91.41-.44.68-1.26.82-2.44.29,1.23.76,2.02,1.41,2.37.63.33,1.82.38,3.53.14,1.87-.26,3.18-.75,3.97-1.47.76-.71,1.19-1.58,1.24-2.55.08-.98-.07-2.84-.44-5.52l-.57-4.04-21.97,3.09Zm18.86,4.54c-.18.27-.62.47-1.3.57l-1.22.17c-.98.14-1.56.08-1.76-.14-.22-.22-.37-.67-.46-1.29l4.88-.69c.09.65.04,1.1-.14,1.37Z"/>
  <path class="cls-1" d="m30.89,135.23l9.7,2.42-10.48.72-1.17,4.68,21.52,5.37,1.17-4.68-9.78-2.44,10.51-.49,1.22-4.89-21.52-5.37-1.17,4.68Z"/>
  <path class="cls-1" d="m49.55,157.06l-21.97-3.09.8-5.72,21.97,3.09-.8,5.72Z"/>
  <path class="cls-1" d="m303.86,176.85c1.75.03,3.01-.11,3.76-.46.75-.32,1.36-1.02,1.87-2.05.48-1.06.75-2.31.78-3.82.02-1.37-.17-2.52-.6-3.52-.42-.97-1.04-1.66-1.82-2.11-.76-.45-2.02-.69-3.71-.72-1.18-.02-2.14.13-2.91.41-.75.29-1.35.66-1.8,1.12-.42.46-1.15,1.4-2.1,2.81-.98,1.41-1.66,2.3-2.07,2.68-.39.35-1.27.5-2.55.48-.6,0-1.04-.1-1.34-.3-.3-.2-.46-.47-.45-.86,0-.38.12-.66.37-.82.25-.13.77-.2,1.62-.19l2.68.05.09-5.37-1.45-.03c-1.67-.03-2.93.11-3.84.45-.91.31-1.69,1.01-2.28,2.1-.59,1.09-.92,2.4-.95,3.93-.02,1.42.2,2.66.7,3.71.47,1.08,1.09,1.8,1.85,2.19.73.37,1.88.58,3.47.61,2.19.04,3.76-.26,4.75-.9.97-.67,2.26-2.26,3.84-4.78.54-.89,1.01-1.43,1.4-1.62.36-.19.94-.29,1.68-.27.57.01.98.1,1.28.3.27.17.4.42.4.77,0,.3-.12.55-.31.68-.22.13-.72.18-1.48.17l-1.64-.03-.09,5.37.88.02Z"/>
  <path class="cls-1" d="m26.93,164.55l15.6.55c.85.03,1.39.08,1.69.11.3.04.54.18.73.44.18.23.28.56.27.97,0,.14-.04.38-.08.74l3.89.14.1-2.87c.04-1.29-.03-2.22-.2-2.86-.17-.66-.51-1.17-1.01-1.57-.48-.37-1.05-.61-1.68-.66-.66-.08-2.08-.16-4.29-.23l-14.81-.52-.2,5.77Z"/>
  <path class="cls-1" d="m287,178.88l22.01,2.7-.7,5.74-22.01-2.7.7-5.74Z"/>
  <path class="cls-1" d="m27.18,175.71l9.97-.7-9.75,3.92.34,4.81,22.13-1.55-.34-4.81-10.05.7,9.84-3.71-.35-5.03-22.13,1.55.34,4.81Z"/>
  <path class="cls-1" d="m308.11,191.49l-4.32-1-.77,3.34-17.29-3.99-1.3,5.63,17.29,3.99-.76,3.31,4.32,1,2.83-12.27Z"/>
  <path class="cls-1" d="m29.99,199.73l22.36-.94-1.04-5.88-4,.34-.36-2.05,3.88-.99-1.02-5.8-21.27,7.11,1.45,8.2Zm13.45-5.71c-1.94.17-5.05.36-9.36.51,3.62-.92,6.62-1.75,9.02-2.48l.35,1.97Z"/>
  <path class="cls-1" d="m302.2,214.97c-3.08-1.78-5.68-3.17-7.84-4.22,1.47.34,4.41.8,8.77,1.38l1.64-5.05-14.72-.52-7.63-2.48-1.65,5.08,7.63,2.48,12.16,8.39,1.64-5.05Z"/>
  <path class="cls-1" d="m54.88,205.31l-21.43,5.74-1.5-5.58,21.43-5.74,1.5,5.58Z"/>
  <path class="cls-1" d="m296.12,221.19c-.31.7-.54,1.14-.68,1.32-.16.17-.36.26-.63.26-.24.01-.87-.21-1.87-.65l-10.36-4.61c-.93-.41-1.48-.72-1.67-.89-.19-.17-.29-.37-.27-.6.01-.23.17-.73.51-1.48l-2.65-1.18-.71,1.6c-.65,1.45-1.01,2.61-1.04,3.41-.04.82.16,1.45.59,1.91.42.46,1.51,1.06,3.21,1.82l10.36,4.61c1.7.76,2.87,1.16,3.5,1.17.63,0,1.23-.26,1.82-.87.59-.58,1.19-1.6,1.82-3.02l.71-1.6-2.65-1.18Z"/>
  <path class="cls-1" d="m38.95,226.69l4.14-1.59-1.23-3.2,16.57-6.36-2.07-5.4-16.57,6.36-1.22-3.17-4.14,1.59,4.51,11.76Z"/>
</svg>