<?xml version="1.0" encoding="UTF-8"?>
<svg id="_图层_1" data-name="图层 1" xmlns="http://www.w3.org/2000/svg" viewBox="0 0 377.13 296.48">
  <defs>
    <style>
      .cls-1 {
        fill: #e2691f;
        font-size: 54.34px;
        stroke: #eb6100;
        stroke-width: 2.6px;
      }

      .cls-1, .cls-2, .cls-3, .cls-4 {
        stroke-miterlimit: 10;
      }

      .cls-1, .cls-5 {
        font-family: Arial-ItalicMT, Arial;
        font-style: italic;
      }

      .cls-6 {
        fill: #e26921;
      }

      .cls-7 {
        letter-spacing: -.02em;
      }

      .cls-8 {
        letter-spacing: -.09em;
      }

      .cls-2 {
        fill: #9fa0a0;
        stroke: #9fa0a0;
        stroke-width: 1.83px;
      }

      .cls-5 {
        fill: #fff;
        font-size: 25.08px;
      }

      .cls-3 {
        stroke-width: 2px;
      }

      .cls-3, .cls-4 {
        fill: #036eb8;
        stroke: #036eb8;
      }

      .cls-9 {
        letter-spacing: 0em;
      }

      .cls-4 {
        stroke-width: 2.02px;
      }
    </style>
  </defs>
  <g>
    <polyline class="cls-6" points="156.03 49.77 160.56 41.22 164.91 36.62 173.45 29.02 184.94 23.8 324.08 24.17 296.11 36.79 187.42 36.79 122.11 210.55 102 224.13 235.43 224.13 244.83 222.39 250.75 218.55 259.11 212.63 266.43 200.05 324.08 24.17 324.08 19.64 324.08 9.71 329.03 4.54 370.31 36.79 309.61 220.22 287.23 236.55 261.1 246.06 209.19 248.57 104.47 248.57 57.35 214.6 104.47 192.4 150.11 62.47 152.55 56.54 156.03 49.77 160.56 41.22 166.83 34.6 173.45 29.02 184.94 23.8 225.35 23.8"/>
    <path class="cls-3" d="m330.75,1h-157.81l-12.54,2.79-8.71,2.44-6.27,2.79-7.66,4.53-5.23,3.83-4.53,4.53-5.57,5.57-4.18,4.88-3.14,6.62-3.66,6.44-2.79,8.53-58.52,163.9,47.81,34.49h155.19l8.1-2.09,6.53-1.57,5.75-1.83,5.75-2.09,5.75-2.87,4.96-2.87,4.18-3.14,4.96-3.66,4.18-3.66,3.14-3.92,3.92-5.49,2.35-5.75,2.61-7.84,3.14-9.14,57.48-160.94L330.75,1Zm-17.55,191.94l-2.98,8.69-2.48,7.45-2.23,5.46-3.72,5.21-2.98,3.72-3.97,3.47-4.72,3.47-3.97,2.98-4.72,2.73-5.46,2.73-5.46,1.99-5.46,1.74-6.21,1.49-7.69,1.99H103.71l-45.42-32.76L113.88,57.59l2.65-8.11,3.47-6.12,2.98-6.29,3.97-4.63,5.3-5.3,4.3-4.3,4.96-3.64,7.28-4.3,5.96-2.65,8.27-2.32,11.91-2.65h149.92l42.94,32.76-54.61,152.9Z"/>
    <g>
      <path class="cls-4" d="m186.09,39.16l-65.21,171.39h108.5l63.6-171.39h-106.9Zm41.11,163.04h-97.92l58.85-154.68h96.48l-57.4,154.68Z"/>
      <path class="cls-2" d="m188.12,47.52l-58.85,154.68h97.92l57.4-154.68h-96.48Zm37.48,150.95h-90.24l54.23-147.22h88.9l-52.9,147.22Z"/>
    </g>
    <polygon class="cls-3" points="345.94 93.2 319.47 93.2 327.13 74.04 141.8 74.04 139.19 74.04 136.58 75.87 133.7 77.44 132.4 78.74 130.83 79.79 129.52 82.4 128.22 85.01 126.91 88.93 125.87 93.2 105.49 93.2 80.14 163.13 102.35 163.13 97.65 175.67 285.76 175.67 288.11 173.85 290.99 171.76 293.34 169.93 295.43 167.31 297 164.7 297.26 163.4 319.21 163.13 345.94 93.2"/>
    <text class="cls-5" transform="translate(155.37 96.51) scale(1.21 1)"><tspan class="cls-8" x="0" y="0">T</tspan><tspan x="13.02" y="0">erahertz</tspan></text>
    <text class="cls-5" transform="translate(107.82 173.84) scale(1.21 1)"><tspan x="0" y="0">PHO</tspan><tspan class="cls-7" x="54.35" y="0">T</tspan><tspan class="cls-9" x="69.22" y="0">ONICS</tspan></text>
    <text class="cls-1" transform="translate(128.9 145.11) scale(1.48 1)"><tspan x="0" y="0">THZ</tspan></text>
  </g>
  <text/>
  <text/>
</svg>